<svg xmlns="http://www.w3.org/2000/svg" viewBox="0 0 1920 398.5"><defs><style>.cls-1{fill:#222;}</style></defs><title>Asset2</title><g id="Layer_2" data-name="Layer 2"><g id="Layer_1-2" data-name="Layer 1"><path class="cls-1" d="M.5,398V221.83C93.75,179.49,191,151.12,289.57,137.5a826.87,826.87,0,0,1,114.14-8.28c65.6,0,118,8.71,173.5,17.93,44.73,7.43,91,15.12,146.26,18.35,17.2,1,34.32,1.52,50.88,1.52,159.41,0,261.66-45.82,360.53-90.14C1222.53,37.6,1305.32.5,1419.86.5a571.08,571.08,0,0,1,57.59,3c64.85,6.61,129.8,24,193,51.69,84.12,36.83,167.89,92.86,249,166.53V398Z"/><path d="M1419.91,0V1a569.73,569.73,0,0,1,57.49,3,617,617,0,0,1,88.25,15.58,671.68,671.68,0,0,1,104.64,36.07C1754.3,92.43,1838,148.38,1919,222V397.5H1V222.15C94.12,179.91,191.23,151.6,289.64,138a827.39,827.39,0,0,1,114.07-8.27c65.56,0,118,8.71,173.42,17.92,44.74,7.44,91,15.13,146.31,18.36,17.22,1,34.34,1.52,50.91,1.52,159.53,0,261.82-45.85,360.75-90.18C1222.69,38.09,1305.43,1,1419.86,1l.05-1m-.05,0c-242.59,0-343.44,166.52-645.51,166.52q-24.5,0-50.85-1.52C600.64,157.82,523,128.72,403.71,128.72A829,829,0,0,0,289.5,137C163.82,154.37,64.25,192.31,0,221.5v177H1920v-177C1739.3,57.33,1583.37,13.79,1477.5,3a568,568,0,0,0-57.64-3Z"/></g></g></svg>