<svg xmlns="http://www.w3.org/2000/svg" viewBox="0 0 310.49 63.99"><defs><style>.cls-1{fill:#333;}.cls-2{fill:#03a9f4;stroke:#03a9f4;stroke-miterlimit:10;stroke-width:5px;}</style></defs><title>infernologo_1</title><g id="Layer_2" data-name="Layer 2"><g id="Layer_1-2" data-name="Layer 1"><path class="cls-1" d="M0,9H9.54V18.5H0ZM0,23.29H9.54V63.8H0Z"/><path class="cls-1" d="M24.12,63.8H14.58V43.52a19.38,19.38,0,0,1,6-14.28,19.42,19.42,0,0,1,14.33-5.95,19.38,19.38,0,0,1,14.28,5.95,19.38,19.38,0,0,1,6,14.28V63.8H45.56V43.52a10.67,10.67,0,0,0-10.7-10.69A10.65,10.65,0,0,0,24.12,43.52Z"/><path class="cls-1" d="M60.14,34.34a19.54,19.54,0,0,1,6-14.33,19.42,19.42,0,0,1,14.33-6h8.33v9.53H80.42a10.79,10.79,0,0,0-10.7,9.54H84v9.53H69.67V63.8H60.14Z"/><path class="cls-1" d="M111.07,23.29a19.38,19.38,0,0,1,14.28,5.95,19.38,19.38,0,0,1,6,14.28v4.79H101.43a10.05,10.05,0,0,0,9.64,6h10.7V63.8H109.86v0A20.27,20.27,0,0,1,90.79,43.52a19.38,19.38,0,0,1,5.95-14.28A19.42,19.42,0,0,1,111.07,23.29Zm9.59,15.49a10.74,10.74,0,0,0-19.23,0Z"/><path class="cls-1" d="M136.35,43.52a19.38,19.38,0,0,1,6-14.28,19.42,19.42,0,0,1,14.33-5.95H165v9.54h-8.32a10.67,10.67,0,0,0-10.75,10.69V63.8h-9.53Z"/><path class="cls-1" d="M179.53,63.8H170V43.52A19.38,19.38,0,0,1,176,29.24a20.17,20.17,0,0,1,28.61,0,19.38,19.38,0,0,1,5.95,14.28V63.8H201V43.52a10.73,10.73,0,0,0-21.45,0Z"/><path class="cls-1" d="M235.84,63.8a19.41,19.41,0,0,1-14.33-5.95,19.42,19.42,0,0,1-5.95-14.33,19.38,19.38,0,0,1,5.95-14.28,20.17,20.17,0,0,1,28.61,0,19.42,19.42,0,0,1,5.95,14.28,19.46,19.46,0,0,1-5.95,14.33A19.38,19.38,0,0,1,235.84,63.8Zm0-31a10.73,10.73,0,0,0-7.62,18.31A10.74,10.74,0,0,0,243.41,36,10.45,10.45,0,0,0,235.84,32.83Z"/><path class="cls-2" d="M288.54,61.1,307.3,48.35l-8.7-18a49.93,49.93,0,0,1-3.57,10c-2.4,5-4.57,9.27-7.29,9.26-3.44,0-6.43-6.86-7.17-11.79-.32-2.19-.2-4.14.13-8.06.22-2.58.59-6,1.29-10L268.25,51Z"/></g></g></svg>